# File created by Blade
# Date/Time:  Wed Apr 08 17:00:17 2015
# Frame Rate: 120.000 fps
#------------------------------------------------------
:FULLY-SPECIFIED
:DEGREES
1696
root 1.169996 35.650670 2.733818 -26.443058 -77.104484 13.273160
Spine 9.302831 5.004658 -9.830773
Head -0.001721 -4.317606 1.091966
LeftShoulder 8.340698 -0.126953 25.380841
LeftArm 93.192840 47.088085 -39.083495
LeftForeArm -52.161743 0.000000 91.473409
LeftHand -25.928326 -0.000000 16.034180
LeftHandThumb1 -26.253704 0.000000 33.147579
RightShoulder 4.666187 -33.600724 -24.668220
RightArm 88.443720 18.262243 9.178190
RightForeArm -14.369560 -0.000000 81.288327
RightHand 1.143421 -0.000000 34.069866
RightHandThumb1 -24.326973 -0.000000 -32.862282
LeftUpLeg 14.240525 5.806165 5.736699
LeftLeg 12.169520 -0.000000 -0.000000
LeftFoot -13.878476 -3.810794 -12.043525
LeftToeBase 10.226096 -0.000000 -0.000000
RightUpLeg 25.046831 -19.203959 -18.520785
RightLeg 1.592284 -0.000000 -0.000000
RightFoot -12.254390 5.748270 20.332274
RightToeBase 14.606171 -0.000000 -0.000000
1697
root 1.164681 35.648766 2.731634 -26.381491 -77.024447 13.208479
Spine 9.327075 5.018460 -9.878218
Head -0.048878 -4.525908 1.192206
LeftShoulder 8.341728 -0.022931 25.316939
LeftArm 93.241343 47.095813 -38.966893
LeftForeArm -52.133013 -0.000000 91.532688
LeftHand -25.819477 -0.000000 16.077561
LeftHandThumb1 -26.253704 0.000000 33.147579
RightShoulder 4.568930 -33.666408 -24.608397
RightArm 88.704455 18.403700 9.549077
RightForeArm -14.505882 -0.000000 82.877697
RightHand 1.077347 0.000000 34.157582
RightHandThumb1 -24.326973 -0.000000 -32.862282
LeftUpLeg 14.230388 5.767825 5.735107
LeftLeg 12.178924 -0.000000 -0.000000
LeftFoot -13.882068 -3.856335 -12.029219
LeftToeBase 10.200754 -0.000000 -0.000000
RightUpLeg 25.096681 -19.264462 -18.546356
RightLeg 1.581170 -0.000000 -0.000000
RightFoot -12.277180 5.733597 20.333086
RightToeBase 14.601847 -0.000000 -0.000000
1698
root 1.159878 35.646621 2.729679 -26.345511 -76.943150 13.173765
Spine 9.347103 5.035948 -9.935346
Head -0.081739 -4.741359 1.296095
LeftShoulder 8.394325 0.019222 25.256560
LeftArm 93.146386 47.150156 -38.961015
LeftForeArm -52.052552 -0.000000 91.634545
LeftHand -25.535715 -0.000000 15.946392
LeftHandThumb1 -26.253704 0.000000 33.147579
RightShoulder 4.492493 -33.698358 -24.577689
RightArm 88.921872 18.484934 10.011242
RightForeArm -14.558970 -0.000000 84.442524
RightHand 0.976421 0.000000 34.209082
RightHandThumb1 -24.326973 -0.000000 -32.862282
LeftUpLeg 14.213996 5.716721 5.721058
LeftLeg 12.191734 -0.000000 -0.000000
LeftFoot -13.882966 -3.895309 -12.037979
LeftToeBase 10.220536 -0.000000 -0.000000
RightUpLeg 25.138133 -19.303385 -18.567694
RightLeg 1.571723 -0.000000 -0.000000
RightFoot -12.313869 5.699555 20.332111
RightToeBase 14.608334 -0.000000 -0.000000
1699
root 1.155964 35.645192 2.728576 -26.309207 -76.859851 13.136334
Spine 9.370948 5.039561 -9.990332
Head -0.113646 -4.947698 1.421056
LeftShoulder 8.397164 0.076700 25.192866
LeftArm 93.189468 47.208660 -38.888636
LeftForeArm -51.906660 -0.000000 91.610885
LeftHand -25.417240 -0.000000 16.012304
LeftHandThumb1 -26.253704 0.000000 33.147579
RightShoulder 4.418642 -33.787806 -24.548527
RightArm 89.213621 18.639771 10.540433
RightForeArm -14.342743 0.000000 85.871711
RightHand 0.970217 -0.000000 34.378910
RightHandThumb1 -24.326973 -0.000000 -32.862282
LeftUpLeg 14.194979 5.674502 5.705744
LeftLeg 12.209200 -0.000000 -0.000000
LeftFoot -13.888041 -3.924911 -12.011826
LeftToeBase 10.243981 -0.000000 -0.000000
RightUpLeg 25.171290 -19.330556 -18.584009
RightLeg 1.579831 -0.000000 -0.000000
RightFoot -12.361347 5.662079 20.339433
RightToeBase 14.643613 -0.000000 -0.000000
1700
root 1.151655 35.643154 2.727096 -26.266039 -76.774743 13.089602
Spine 9.397926 5.065887 -10.050075
Head -0.155746 -5.169740 1.580340
LeftShoulder 8.362004 0.173096 25.143494
LeftArm 93.233131 47.332827 -38.910925
LeftForeArm -51.665075 -0.000000 91.486917
LeftHand -25.447797 -0.000000 15.746756
LeftHandThumb1 -26.253704 0.000000 33.147579
RightShoulder 4.366371 -33.840603 -24.524193
RightArm 89.365745 18.744335 11.136367
RightForeArm -14.132374 -0.000000 87.424209
RightHand 0.806967 -0.000000 34.355392
RightHandThumb1 -24.326973 -0.000000 -32.862282
LeftUpLeg 14.173167 5.616923 5.691120
LeftLeg 12.236722 -0.000000 -0.000000
LeftFoot -13.898570 -3.951978 -12.011188
LeftToeBase 10.240215 -0.000000 -0.000000
RightUpLeg 25.203399 -19.367907 -18.606568
RightLeg 1.600364 -0.000000 -0.000000
RightFoot -12.405626 5.644580 20.345205
RightToeBase 14.626890 -0.000000 -0.000000
1701
root 1.148278 35.641094 2.724964 -26.193573 -76.685888 13.017426
Spine 9.422670 5.085093 -10.113240
Head -0.177909 -5.407950 1.765243
LeftShoulder 8.319838 0.254391 25.119444
LeftArm 93.432475 47.260753 -38.636635
LeftForeArm -51.651148 0.000000 91.455676
LeftHand -25.168785 -0.000000 15.697310
LeftHandThumb1 -26.253704 0.000000 33.147579
RightShoulder 4.310129 -33.925103 -24.493256
RightArm 89.557903 18.878437 11.784584
RightForeArm -14.042207 -0.000000 88.905389
RightHand 0.719905 -0.000000 34.366128
RightHandThumb1 -24.326973 -0.000000 -32.862282
LeftUpLeg 14.137047 5.586747 5.685746
LeftLeg 12.282210 -0.000000 -0.000000
LeftFoot -13.914573 -3.985357 -11.958951
LeftToeBase 10.245163 -0.000000 -0.000000
RightUpLeg 25.227991 -19.382664 -18.607910
RightLeg 1.618215 -0.000000 -0.000000
RightFoot -12.458308 5.600977 20.390068
RightToeBase 14.658545 -0.000000 -0.000000
1702
root 1.144675 35.639814 2.723057 -26.160290 -76.595679 12.978884
Spine 9.459624 5.111988 -10.183673
Head -0.245044 -5.620519 1.944364
LeftShoulder 8.303551 0.314348 25.065928
LeftArm 93.482932 47.298804 -38.551411
LeftForeArm -51.550130 -0.000000 91.469286
LeftHand -25.117401 0.000000 15.835303
LeftHandThumb1 -26.253704 0.000000 33.147579
RightShoulder 4.240385 -33.989628 -24.433610
RightArm 89.705186 19.011399 12.421349
RightForeArm -14.246386 -0.000000 90.486752
RightHand 0.523691 -0.000000 34.088830
RightHandThumb1 -24.326973 -0.000000 -32.862282
LeftUpLeg 14.112811 5.493182 5.658438
LeftLeg 12.309462 -0.000000 -0.000000
LeftFoot -13.909036 -3.994613 -11.975004
LeftToeBase 10.202034 -0.000000 -0.000000
RightUpLeg 25.253202 -19.391892 -18.619941
RightLeg 1.646588 -0.000000 -0.000000
RightFoot -12.505667 5.557218 20.400553
RightToeBase 14.637979 -0.000000 -0.000000
1703
root 1.141296 35.638781 2.721436 -26.106082 -76.510160 12.917451
Spine 9.503671 5.157719 -10.243020
Head -0.327988 -5.857229 2.133485
LeftShoulder 8.275406 0.358292 25.039717
LeftArm 93.482142 47.386687 -38.534752
LeftForeArm -51.316808 -0.000000 91.515211
LeftHand -25.120029 -0.000000 15.867821
LeftHandThumb1 -26.253704 0.000000 33.147579
RightShoulder 4.147899 -34.043016 -24.359597
RightArm 89.902909 19.141954 13.173129
RightForeArm -14.422877 0.000000 91.995173
RightHand 0.477817 -0.000000 34.228593
RightHandThumb1 -24.326973 -0.000000 -32.862282
LeftUpLeg 14.088100 5.437276 5.649070
LeftLeg 12.343058 -0.000000 -0.000000
LeftFoot -13.911769 -4.033360 -11.979461
LeftToeBase 10.213131 -0.000000 -0.000000
RightUpLeg 25.276220 -19.399481 -18.623868
RightLeg 1.676140 -0.000000 -0.000000
RightFoot -12.556538 5.505976 20.425838
RightToeBase 14.622805 -0.000000 -0.000000
1704
root 1.138003 35.637524 2.719918 -26.043219 -76.419698 12.843834
Spine 9.547337 5.175018 -10.303006
Head -0.399850 -6.071089 2.301210
LeftShoulder 8.229495 0.413668 25.033089
LeftArm 93.394229 47.531703 -38.612408
LeftForeArm -51.034550 -0.000000 91.624409
LeftHand -25.070853 -0.000000 16.642428
LeftHandThumb1 -26.253704 0.000000 33.147579
RightShoulder 4.072456 -34.130829 -24.285683
RightArm 90.125833 19.355373 13.918789
RightForeArm -14.754928 -0.000000 93.454232
RightHand 0.515316 -0.000000 34.153054
RightHandThumb1 -24.326973 -0.000000 -32.862282
LeftUpLeg 14.068320 5.358612 5.632893
LeftLeg 12.373352 -0.000000 -0.000000
LeftFoot -13.919027 -4.057689 -11.989336
LeftToeBase 10.233669 -0.000000 -0.000000
RightUpLeg 25.311008 -19.457017 -18.652926
RightLeg 1.707606 -0.000000 -0.000000
RightFoot -12.587623 5.494614 20.421895
RightToeBase 14.618832 -0.000000 -0.000000
1705
root 1.134137 35.636026 2.717186 -25.963372 -76.316333 12.748504
Spine 9.598326 5.169558 -10.345426
Head -0.467788 -6.278374 2.408584
LeftShoulder 8.270000 0.539863 24.844326
LeftArm 93.705069 47.411131 -38.298720
LeftForeArm -51.005130 -0.000000 91.521625
LeftHand -25.101499 0.000000 16.432854
LeftHandThumb1 -26.253704 0.000000 33.147579
RightShoulder 4.004233 -34.185764 -24.256701
RightArm 90.351878 19.512379 14.709570
RightForeArm -15.328718 -0.000000 94.885334
RightHand 0.446892 -0.000000 34.269073
RightHandThumb1 -24.326973 -0.000000 -32.862282
LeftUpLeg 14.049341 5.290786 5.626779
LeftLeg 12.405219 -0.000000 -0.000000
LeftFoot -13.921890 -4.098149 -11.996213
LeftToeBase 10.241556 -0.000000 -0.000000
RightUpLeg 25.362864 -19.513790 -18.677280
RightLeg 1.723340 -0.000000 -0.000000
RightFoot -12.619342 5.467225 20.432008
RightToeBase 14.595744 -0.000000 -0.000000
